<?xml version="1.0" standalone="no"?>
<!DOCTYPE svg PUBLIC "-//W3C//DTD SVG 20010904//EN"
 "http://www.w3.org/TR/2001/REC-SVG-20010904/DTD/svg10.dtd">
<svg version="1.0" xmlns="http://www.w3.org/2000/svg"
 width="979.000000pt" height="979.000000pt" viewBox="0 0 979.000000 979.000000"
 preserveAspectRatio="xMidYMid meet">
<metadata>
Created by potrace 1.14, written by Peter Selinger 2001-2017
</metadata>
<g transform="translate(0.000000,979.000000) scale(0.100000,-0.100000)"
fill="#000000" stroke="none">
<path d="M4655 9770 c-223 -40 -380 -97 -574 -207 -536 -304 -2922 -1687
-2981 -1727 -41 -28 -117 -91 -169 -141 -258 -246 -422 -562 -476 -915 -22
-142 -22 -3628 0 -3770 54 -353 218 -669 476 -915 52 -49 128 -113 169 -141
59 -40 2445 -1423 2981 -1727 339 -192 692 -263 1034 -207 221 36 385 94 584
207 536 304 2922 1687 2981 1727 41 28 117 92 169 141 258 246 422 562 476
915 22 142 22 3628 0 3770 -54 353 -218 669 -476 915 -52 50 -128 113 -169
141 -91 62 -2956 1717 -3090 1785 -210 105 -425 158 -670 165 -124 3 -177 0
-265 -16z m444 -771 c41 -10 98 -30 127 -43 29 -14 711 -404 1516 -868 949
-547 1488 -863 1534 -900 95 -77 166 -164 219 -273 87 -175 80 9 80 -2020 0
-2029 7 -1844 -79 -2020 -53 -107 -142 -216 -234 -284 -68 -51 -2939 -1712
-3035 -1756 -199 -92 -475 -92 -673 -1 -105 48 -2961 1700 -3031 1753 -98 74
-185 179 -239 288 -86 176 -79 -9 -79 2020 0 1694 1 1804 18 1865 21 78 74
192 118 257 46 66 144 162 215 210 61 41 2887 1674 2972 1717 161 82 383 103
571 55z"/>
<path d="M2740 6453 c-161 -56 -253 -189 -254 -363 0 -102 27 -171 95 -245 23
-25 282 -249 576 -497 l534 -451 -23 -22 c-13 -12 -255 -218 -538 -457 -283
-239 -532 -454 -554 -478 -64 -71 -90 -140 -90 -240 1 -178 96 -311 262 -365
77 -25 199 -17 273 18 67 32 1493 1231 1551 1305 57 72 81 142 81 237 0 90
-16 144 -66 218 -22 33 -249 231 -756 660 -398 337 -739 623 -759 636 -86 59
-234 79 -332 44z"/>
<path d="M5095 4056 c-88 -28 -162 -85 -215 -167 -144 -223 -4 -525 266 -569
79 -13 1749 -13 1828 0 129 21 228 95 287 216 31 63 34 76 34 159 0 78 -4 97
-28 147 -41 84 -107 152 -185 190 l-67 33 -940 2 c-736 1 -949 -1 -980 -11z"/>
</g>
</svg>
